<?xml version="1.0" encoding="utf-8"?>
<!-- Svg Vector Icons : http://www.onlinewebfonts.com/icon -->
<!DOCTYPE svg PUBLIC "-//W3C//DTD SVG 1.1//EN" "http://www.w3.org/Graphics/SVG/1.1/DTD/svg11.dtd">
<svg version="1.1" xmlns="http://www.w3.org/2000/svg" xmlns:xlink="http://www.w3.org/1999/xlink" x="0px" y="0px" viewBox="0 0 1000 1000" enable-background="new 0 0 1000 1000" xml:space="preserve">
<metadata> Svg Vector Icons : http://www.onlinewebfonts.com/icon </metadata>
<g><g transform="translate(0.000000,511.000000) scale(0.100000,-0.100000)"><path d="M4869.9,4965.2c-44-26-494.3-312.2-1000.5-636.3l-920.5-588.3l-760.4-10c-748.4-10-762.4-10-866.4-58c-132.1-60-282.2-220.1-330.2-354.2c-28-80-34-166.1-34-470.2v-372.2l-236.1-146.1c-378.2-240.1-546.3-446.2-604.3-750.4c-16-86-20-868.4-16-2831.5l6-2711.4l48-120.1c142.1-354.2,418.2-598.3,770.4-680.4c114.1-26,616.3-30,4138.2-26l4008.1,6l120.1,48c312.2,126.1,528.3,342.2,652.3,652.3l48,120.1l6,2711.4c4,1963,0,2745.4-16,2831.5c-58,304.2-226.1,510.3-604.3,750.4l-236.1,146.1v382.2c0,380.2,0,382.2-58,502.3c-68,144.1-176.1,252.1-312.2,314.2c-98.1,44-120.1,46-860.4,56l-760.4,10l-920.5,588.3C5060,5013.2,5066,5011.2,5000,5011.2C4972,5011.2,4914,4989.2,4869.9,4965.2z M5666.3,4134.8l620.3-394.2l-642.3-6c-354.2-2-934.5-2-1288.7,0l-642.3,6l638.3,406.2C4713.9,4376.9,5002,4547,5018,4541C5034,4535,5326.2,4352.9,5666.3,4134.8z M2190.5,3246.3c-24-134.1-150.1-348.2-272.1-472.2c-122.1-122.1-364.2-262.1-504.3-292.2l-56-12v320.2c0,516.3,4,520.3,496.3,520.3h350.2L2190.5,3246.3z M7407.2,3166.3c66-286.2,252.1-584.3,490.3-782.4c146.1-122.1,400.2-250.1,588.3-294.2l146.1-34l6-758.4l4-758.4L7801.5,4.6L6959-531.7H5000H3039L2198.5,2.6l-840.4,534.3l4,760.4l6,762.4l50,6c84,10,304.2,86.1,420.2,146.1c372.2,188.1,672.4,574.3,762.4,984.5l24,114.1H5000h2373.2L7407.2,3166.3z M8539.9,3278.3c84-60,102.1-142.1,102.1-488.3v-320.2l-54,12c-140.1,28-386.2,172.1-504.3,290.2c-122.1,122.1-248.1,340.2-274.1,474.2l-12,64h348.2C8433.8,3310.3,8499.8,3304.3,8539.9,3278.3z M957.9,1389.3c0-318.2-8-580.3-16-580.3c-28,0-250.1,160.1-290.2,206.1c-84,100-134.1,240.1-134.1,378.2c0,110.1,10,154.1,66,260.1c54,104,88.1,142.1,204.1,222.1c76,52,144.1,94.1,154.1,94.1C949.9,1969.6,957.9,1709.5,957.9,1389.3z M9194.2,1887.6c140.1-98,176.1-136.1,240.1-268.1c88.1-184.1,52-440.2-86-604.3c-40-46-262.1-206.1-290.1-206.1c-8,0-16,262.1-16,580.3c0,320.2,8,580.3,16,580.3C9068.1,1969.6,9128.2,1933.6,9194.2,1887.6z M2734.8-831.8C3915.4-1582.2,4907.9-2206.6,4942-2218.5c42-16,74-16,116,0c60,22,4324.3,2727.4,4390.3,2783.4c34,30,34-70,30-2229.2l-6-2259.2l-58-106.1c-68-120.1-170.1-222.1-296.2-288.1l-86-46H5000H967.9l-86,46c-126.1,66-228.1,168.1-296.2,288.1l-58,106.1l-6,2259.2c-4,2159.1-4,2259.2,30,2229.2C571.7,548.9,1554.2-79.4,2734.8-831.8z M6276.7-961.9c-50-50-1270.7-808.4-1290.7-802.4c-30,12-1228.6,770.4-1254.6,794.4c-12,10,524.3,18,1268.7,18C5708.4-951.9,6282.7-955.9,6276.7-961.9z"/><path d="M4739.9,2856.1c-212.1-34-508.3-174.1-686.4-322.2c-328.2-272.1-508.3-634.3-528.3-1066.6c-14-292.2,22-478.3,144.1-728.4c152.1-314.2,366.2-528.3,680.4-680.4C4569.8-47.4,4759.9-91.4,5000-91.4c240.1,0,430.2,44,650.3,150.1c314.2,152.1,528.3,366.2,680.4,680.4c106,220.1,150.1,410.2,150.1,650.3s-44,430.2-150.1,650.3c-152.1,314.2-366.2,528.3-680.4,680.4c-98,48-244.1,100-324.2,118.1C5194.1,2868.1,4867.9,2878.1,4739.9,2856.1z M5328.2,2409.9c318.2-100,596.3-382.2,696.4-710.4c170.1-552.3-148.1-1154.6-704.4-1334.7c-178.1-56-460.2-56-640.3,2c-236.1,74-440.2,232.1-582.3,450.2c-222.1,336.2-222.1,808.4,0,1144.6C4371.7,2381.9,4851.9,2555.9,5328.2,2409.9z"/><path d="M2462.7,1759.5c-70-36-126.1-84.1-160.1-136.1c-46-70-54-102.1-54-234.1c0-136.1,6-162.1,58-236.1c84-124.1,238.1-194.1,386.2-178.1c218.1,22,374.2,196.1,374.2,414.2C3067,1703.5,2744.8,1901.6,2462.7,1759.5z"/><path d="M7215.2,1789.5c-162.1-50-282.2-218.1-282.2-400.2c0-238.1,186.1-420.2,428.2-420.2c108.1,0,266.1,88,332.2,184.1c52,74,58,100.1,58,236.1s-6,162.1-58,236.1C7593.3,1771.5,7389.3,1841.6,7215.2,1789.5z"/></g></g>
</svg>